<svg width="700" height="300" xmlns="http://www.w3.org/2000/svg" xmlns:svg="http://www.w3.org/2000/svg" xmlns:xlink="http://www.w3.org/1999/xlink" xlink:href="data:image/png;base64">
<g>
<rect fill="#77ddff" height="169" id="svg_4" stroke="#000000" stroke-width="0" width="702.00002" x="-0.5" y="-2.5"/>
<rect fill="#7f7f7f" height="165" id="svg_2" stroke="#000000" stroke-width="0" width="704.00001" x="-1.5" y="137"/>
<rect fill="#77ddff" height="110" id="svg_5" stroke="#000000" stroke-width="0" width="560.00001" x="142.5" y="131.1"/>
<ellipse cx="143" cy="131" fill="#77ddff" id="svg_6" rx="110" ry="110" stroke="#000000" stroke-width="0"/>
<g filter="url(#svg_25_blur)" id="svg_25">
<use id="svg_9" transform="matrix(0.124451 0 0 0.120814 126.321 105.022)" x="122.39702" xlink:href="#svg_8" y="1070.88428"/>
<g id="svg_10"/>
<g id="svg_19">
<line fill="none" id="svg_11" stroke="#000000" x1="158.53333" x2="165.73333" y1="236" y2="219.6"/>
<line fill="none" id="svg_12" stroke="#000000" x1="173.33333" x2="165.73333" y1="234.8" y2="220"/>
<line fill="none" id="svg_13" stroke="#000000" x1="164.53333" x2="165.73333" y1="199.6" y2="220"/>
<line fill="none" id="svg_14" stroke="#000000" x1="155.73333" x2="175.33333" y1="205.6" y2="204.8"/>
<ellipse cx="164.53333" cy="192.2" fill="none" id="svg_15" rx="8" ry="7.8" stroke="#000000"/>
<path d="m159.73333,192.8c0,0 1.6,2.8 3.2,3.6c1.6,0.8 4,0.8 5.2,0c1.2,-0.8 1.6,-4 1.6,-4" fill="none" id="svg_16" stroke="#000000"/>
<ellipse cx="162.53333" cy="189.2" fill="#000000" id="svg_17" rx="1.2" ry="1.2" stroke="#000000"/>
<ellipse cx="167.53334" cy="189.20001" fill="#000000" id="svg_18" rx="1.2" ry="1.2" stroke="#000000"/>
</g>
<line fill="none" id="svg_20" stroke="#000000" x1="144.53333" x2="111.33333" y1="187.2" y2="187.2"/>
<line fill="none" id="svg_21" stroke="#000000" x1="136.13334" x2="102.93334" y1="198" y2="198"/>
<line fill="none" id="svg_22" stroke="#000000" x1="144.13333" x2="110.93333" y1="209.2" y2="209.2"/>
<line fill="none" id="svg_23" stroke="#000000" x1="136.13333" x2="102.93333" y1="219.60001" y2="219.60001"/>
<line fill="none" id="svg_24" stroke="#000000" x1="144.13334" x2="110.93334" y1="230" y2="230"/>
</g>
<g id="svg_26">
<use id="svg_27" transform="matrix(0.124451 0 0 0.120814 126.321 105.022)" x="3946.90895" xlink:href="#svg_8" y="1068.16477"/>
<g id="svg_28"/>
<g id="svg_29">
<line fill="none" id="svg_30" stroke="#000000" x1="634.49753" x2="641.69753" y1="235.67144" y2="219.27144"/>
<line fill="none" id="svg_31" stroke="#000000" x1="649.29753" x2="641.69753" y1="234.47144" y2="219.67144"/>
<line fill="none" id="svg_32" stroke="#000000" x1="640.49753" x2="641.69753" y1="199.27144" y2="219.67144"/>
<line fill="none" id="svg_33" stroke="#000000" x1="631.69753" x2="651.29753" y1="205.27144" y2="204.47144"/>
<ellipse cx="640.49753" cy="191.87144" fill="none" id="svg_34" rx="8" ry="7.8" stroke="#000000"/>
<path d="m635.69753,192.47144c0,0 1.6,2.8 3.2,3.6c1.6,0.8 4,0.8 5.2,0c1.2,-0.8 1.6,-4 1.6,-4" fill="none" id="svg_35" stroke="#000000"/>
<ellipse cx="638.49753" cy="188.87144" fill="#000000" id="svg_36" rx="1.2" ry="1.2" stroke="#000000"/>
<ellipse cx="643.49753" cy="188.87145" fill="#000000" id="svg_37" rx="1.2" ry="1.2" stroke="#000000"/>
</g>
<line fill="none" id="svg_38" stroke="#000000" x1="620.49753" x2="587.29753" y1="186.87144" y2="186.87144"/>
<line fill="none" id="svg_39" stroke="#000000" x1="612.09753" x2="578.89753" y1="197.67145" y2="197.67145"/>
<line fill="none" id="svg_40" stroke="#000000" x1="620.09753" x2="586.89753" y1="208.87145" y2="208.87145"/>
<line fill="none" id="svg_41" stroke="#000000" x1="612.09752" x2="578.89752" y1="219.27145" y2="219.27145"/>
<line fill="none" id="svg_42" stroke="#000000" x1="620.09754" x2="586.89754" y1="229.67144" y2="229.67144"/>
</g>
<g filter="url(#svg_43_blur)" id="svg_43">
<use id="svg_44" transform="matrix(0.124451 0 0 0.120814 126.321 105.022)" x="2714.83106" xlink:href="#svg_8" y="1068.16474"/>
<g id="svg_45"/>
<g id="svg_46">
<line fill="none" id="svg_47" stroke="#000000" x1="481.1642" x2="488.3642" y1="235.67144" y2="219.27144"/>
<line fill="none" id="svg_48" stroke="#000000" x1="495.9642" x2="488.3642" y1="234.47144" y2="219.67144"/>
<line fill="none" id="svg_49" stroke="#000000" x1="487.1642" x2="488.3642" y1="199.27144" y2="219.67144"/>
<line fill="none" id="svg_50" stroke="#000000" x1="478.3642" x2="497.9642" y1="205.27144" y2="204.47144"/>
<ellipse cx="487.1642" cy="191.87144" fill="none" id="svg_51" rx="8" ry="7.8" stroke="#000000"/>
<path d="m482.3642,192.47144c0,0 1.6,2.8 3.2,3.6c1.6,0.8 4,0.8 5.2,0c1.2,-0.8 1.6,-4 1.6,-4" fill="none" id="svg_52" stroke="#000000"/>
<ellipse cx="485.1642" cy="188.87144" fill="#000000" id="svg_53" rx="1.2" ry="1.2" stroke="#000000"/>
<ellipse cx="490.1642" cy="188.87145" fill="#000000" id="svg_54" rx="1.2" ry="1.2" stroke="#000000"/>
</g>
<line fill="none" id="svg_55" stroke="#000000" x1="467.1642" x2="433.9642" y1="186.87144" y2="186.87144"/>
<line fill="none" id="svg_56" stroke="#000000" x1="458.7642" x2="425.5642" y1="197.67144" y2="197.67144"/>
<line fill="none" id="svg_57" stroke="#000000" x1="466.7642" x2="433.5642" y1="208.87144" y2="208.87144"/>
<line fill="none" id="svg_58" stroke="#000000" x1="458.76419" x2="425.56419" y1="219.27145" y2="219.27145"/>
<line fill="none" id="svg_59" stroke="#000000" x1="466.76421" x2="433.56421" y1="229.67144" y2="229.67144"/>
</g>
<g filter="url(#svg_60_blur)" id="svg_60">
<use id="svg_61" transform="matrix(0.124451 0 0 0.120814 126.321 105.022)" x="1418.47016" xlink:href="#svg_8" y="1068.16477"/>
<g id="svg_62"/>
<g id="svg_63">
<line fill="none" id="svg_64" stroke="#000000" x1="319.83094" x2="327.03094" y1="235.67144" y2="219.27144"/>
<line fill="none" id="svg_65" stroke="#000000" x1="334.63094" x2="327.03094" y1="234.47144" y2="219.67144"/>
<line fill="none" id="svg_66" stroke="#000000" x1="325.83094" x2="327.03094" y1="199.27144" y2="219.67144"/>
<line fill="none" id="svg_67" stroke="#000000" x1="317.03094" x2="336.63094" y1="205.27144" y2="204.47144"/>
<ellipse cx="325.83094" cy="191.87144" fill="none" id="svg_68" rx="8" ry="7.8" stroke="#000000"/>
<path d="m321.03094,192.47144c0,0 1.6,2.8 3.2,3.6c1.6,0.8 4,0.8 5.2,0c1.2,-0.8 1.6,-4 1.6,-4" fill="none" id="svg_69" stroke="#000000"/>
<ellipse cx="323.83094" cy="188.87144" fill="#000000" id="svg_70" rx="1.2" ry="1.2" stroke="#000000"/>
<ellipse cx="328.83094" cy="188.87145" fill="#000000" id="svg_71" rx="1.2" ry="1.2" stroke="#000000"/>
</g>
<line fill="none" id="svg_72" stroke="#000000" x1="305.83094" x2="272.63094" y1="186.87144" y2="186.87144"/>
<line fill="none" id="svg_73" stroke="#000000" x1="297.43094" x2="264.23094" y1="197.67145" y2="197.67145"/>
<line fill="none" id="svg_74" stroke="#000000" x1="305.43094" x2="272.23094" y1="208.87145" y2="208.87145"/>
<line fill="none" id="svg_75" stroke="#000000" x1="297.43093" x2="264.23093" y1="219.27145" y2="219.27145"/>
<line fill="none" id="svg_76" stroke="#000000" x1="305.43094" x2="272.23094" y1="229.67144" y2="229.67144"/>
</g>
</g>
<defs>
<symbol height="58" id="svg_8" width="380" xmlns="http://www.w3.org/2000/svg" xmlns:svg="http://www.w3.org/2000/svg">
<g>
<line fill="none" stroke="#7f7f7f" stroke-width="10" x1="68.5" x2="79.5" y1="21" y2="42"/>
<line fill="none" stroke="#7f7f7f" stroke-width="12" x1="94.5" x2="77.5" y1="17" y2="43"/>
<line fill="none" stroke="#7f7f7f" stroke-width="12" x1="286.5" x2="300.5" y1="19" y2="43"/>
<line fill="none" stroke="#7f7f7f" stroke-width="10" x1="309.5" x2="302.5" y1="22" y2="41"/>
<circle cx="80" cy="46" fill="#0000bf" r="8" stroke="#ffb200" stroke-width="8"/>
<circle cx="300" cy="46" fill="#0000bf" r="8" stroke="#ffb200" stroke-width="8"/>
<rect fill="#000000" height="6" stroke="#0000ff" stroke-width="0" width="42" x="280" y="21"/>
<rect fill="#000000" height="6" stroke-width="0" width="42" x="58" y="21"/>
<path d="m2.5,5l67.5,14l28,-3l189,0l25,4l65,-15" fill-opacity="0" stroke="#0000ff" stroke-width="10"/>
</g>
</symbol>
<filter height="200%" id="svg_43_blur" width="200%" x="-50%" y="-50%">
<feGaussianBlur in="SourceGraphic" stdDeviation="0.7"/>
</filter>
<filter id="svg_60_blur">
<feGaussianBlur in="SourceGraphic" stdDeviation="1.4"/>
</filter>
<filter id="svg_25_blur">
<feGaussianBlur in="SourceGraphic" stdDeviation="2.1"/>
</filter>
</defs>
</svg>