<svg width="500" height="300" xmlns="http://www.w3.org/2000/svg" xmlns:svg="http://www.w3.org/2000/svg" xmlns:xlink="http://www.w3.org/1999/xlink">
<defs>
<marker id="se_marker_end_$18" markerHeight="5" markerUnits="strokeWidth" markerWidth="5" orient="auto" refX="50" refY="50" viewBox="0 0 100 100">
<path d="m100,50l-100,40l30,-40l-30,-40l100,40z" fill="#0000ff" id="$17" stroke="#0000ff" stroke-width="10"/>
</marker>
<marker id="se_marker_start_$19" markerHeight="5" markerUnits="strokeWidth" markerWidth="5" orient="auto" refX="50" refY="50" viewBox="0 0 100 100">
<path d="m0,50l100,40l-30,-40l30,-40l-100,40z" fill="#ffff00" id="$23" stroke="#ffff00" stroke-width="10"/>
</marker>
<symbol id="$14" xmlns="http://www.w3.org/2000/svg" xmlns:svg="http://www.w3.org/2000/svg">
<g id="$25">
<line fill="none" id="$26" stroke="#7f7f7f" stroke-width="10" x1="68.5" x2="79.5" y1="21" y2="42"/>
<line fill="none" id="$27" stroke="#7f7f7f" stroke-width="12" x1="94.5" x2="77.5" y1="17" y2="43"/>
<line fill="none" id="$28" stroke="#7f7f7f" stroke-width="12" x1="286.5" x2="300.5" y1="19" y2="43"/>
<line fill="none" id="$29" stroke="#7f7f7f" stroke-width="10" x1="309.5" x2="302.5" y1="22" y2="41"/>
<circle cx="80" cy="46" fill="#0000bf" id="$30" r="8" stroke="#ffb200" stroke-width="8"/>
<circle cx="300" cy="46" fill="#0000bf" id="$31" r="8" stroke="#ffb200" stroke-width="8"/>
<rect fill="#000000" height="7" id="$32" stroke="#0000ff" stroke-width="0" width="42" x="280" y="21"/>
<rect fill="#000000" height="7" id="$33" stroke-width="0" width="42" x="58" y="21"/>
<path d="m2.5,5l67.5,14l28,-3l189,0l25,4l65,-15" fill-opacity="0" id="$34" stroke="#0000ff" stroke-width="10"/>
</g>
</symbol>
<filter height="200%" id="$36_blur" width="200%" x="-50%" y="-50%">
<feGaussianBlur stdDeviation="3"/>
</filter>
</defs>
<g>
<rect fill="#7df" height="300" id="sky" stroke-width="0" width="500" x="0" y="0"/>
<g id="rotatable" transform="rotate(-30 255 152)">
<rect fill="#7f7f7f" height="300" id="$3" stroke-width="0" width="900" x="-200" y="230"/>
<g filter="url(#$36_blur)" id="$36">
<g id="$4" transform="rotate(-2.89875 257.209 153.19)">
<line fill="none" id="$5" stroke="#000" stroke-width="2" transform="rotate(5.40012 242.837 198.332)" x1="233.3593" x2="252.31439" y1="219.42862" y2="177.23444"/>
<line fill="none" id="$6" stroke="#000" stroke-width="2" transform="rotate(5.40012 262.329 199.14)" x1="272.33294" x2="252.32478" y1="218.17923" y2="180.10156"/>
<line fill="none" id="$7" stroke="#000" stroke-width="2" transform="rotate(5.40012 255.058 152.97)" x1="253.47847" x2="256.63765" y1="126.72696" y2="179.21239"/>
<line fill="none" id="$8" stroke="#000" stroke-width="2" transform="rotate(5.40012 257.22 141.286)" x1="231.42025" x2="283.02024" y1="142.31548" y2="140.25723"/>
<circle cx="257.74695" cy="107.74043" fill="none" id="$9" r="19.81067" stroke="#000" stroke-width="2" transform="rotate(5.40012 257.747 107.74)"/>
<circle cx="253.2314" cy="99.56073" fill="#000" id="$10" r="3.08737" stroke-width="2" transform="rotate(5.40012 253.231 99.5607)"/>
<circle cx="266.33624" cy="100.79955" fill="#000" id="$11" r="3.08737" stroke-width="2" transform="rotate(5.40012 266.336 100.8)"/>
<path d="m248.46626,110.14924c1.36112,3.66432 2.00165,4.50495 3.3828,5.75512c1.38115,1.25019 3.30274,2.19859 6.045,2.09083c2.74226,-0.10777 5.00414,-1.40106 6.46535,-3.29789c1.4612,-1.89684 2.38197,-5.13004 2.38197,-5.31326" fill="none" id="$12" stroke="#000" stroke-width="2" transform="rotate(5.40012 257.604 113.694)"/>
</g>
<use id="$15" transform="matrix(0.263158 0 0 0.263158 0 0)" x="773.29994" xlink:href="#$14" y="817.00006"/>
</g>
<g id="$38">
<text fill="#0000ff" font-family="Cursive" font-size="12" id="$22" stroke-width="0" text-anchor="middle" x="295.75" xml:space="preserve" y="74">Force Normal</text>
<line fill="none" id="$18" marker-end="url(#se_marker_end_$18)" stroke="#0000ff" stroke-width="2" x1="254.75" x2="255.25" y1="152.33418" y2="14.99999"/>
<line fill="none" id="$20" stroke="#ff0000" stroke-width="2" x1="247.25" x2="262.75" y1="82.95918" y2="82.95918"/>
</g>
</g>
<text fill="#ffff00" font-family="Cursive" font-size="12" font-weight="bold" id="$24" stroke="#000000" stroke-width="0" text-anchor="middle" x="299.25" xml:space="preserve" y="243.5">Force of Gravity</text>
<g id="$16"/>
<polyline fill="none" id="$19" marker-start="url(#se_marker_start_$19)" points="254.25,292.5 254.5,223.83291625976562 254.75,155.1658172607422 " stroke="#ffff00" stroke-width="2"/>
<circle cx="255" cy="152" fill="#000000" id="$13" r="3.5" stroke="#000000" stroke-width="0"/>
<line fill="none" id="$21" stroke="#ff0000" stroke-width="2" x1="246.75" x2="262.25" y1="223.125" y2="223.125"/>
</g>
</svg>