<svg width="500" height="250" xmlns="http://www.w3.org/2000/svg" xmlns:svg="http://www.w3.org/2000/svg" xmlns:xlink="http://www.w3.org/1999/xlink">
<g>
<rect fill="#00d4ff" height="254.99999" id="svg_5" stroke="#000000" stroke-dasharray="null" stroke-linecap="null" stroke-linejoin="null" stroke-width="0" width="518.99998" x="-17.89999" y="-1.6"/>
<rect fill="#7f7f7f" height="62" id="svg_1" stroke="#000000" stroke-dasharray="null" stroke-linecap="null" stroke-linejoin="null" stroke-width="0" width="530" x="-23.5" y="194"/>
<rect fill="#7f7f7f" height="149" id="svg_2" stroke="#000000" stroke-dasharray="null" stroke-linecap="null" stroke-linejoin="null" stroke-width="0" width="309.00001" x="-35.5" y="73"/>
<ellipse cx="58.5" cy="22" fill="#00d4ff" id="svg_3" rx="171" ry="170" stroke="#000000" stroke-dasharray="null" stroke-linecap="null" stroke-linejoin="null" stroke-width="0"/>
<rect fill="#7f7f7f" height="112" id="svg_6" stroke="#000000" stroke-dasharray="null" stroke-linecap="null" stroke-linejoin="null" stroke-width="0" transform="rotate(34.0037 362 200)" width="289" x="217.5" y="144"/>
<rect fill="#00d4ff" height="71" id="svg_7" stroke="#000000" stroke-dasharray="null" stroke-linecap="null" stroke-linejoin="null" stroke-width="0" width="120" x="-55.5" y="121"/>
<use id="svg_9" transform="rotate(33.1287 352.012 121.469) matrix(0.125455 0 0 0.13016 168.35 45.8625)" x="1274.2126" xlink:href="#svg_8" y="551.37575"/>
<g id="svg_10"/>
</g>
<defs>
<symbol id="svg_8" xmlns="http://www.w3.org/2000/svg" xmlns:svg="http://www.w3.org/2000/svg">
<g id="svg_4">
<line fill="none" id="svg_11" stroke="#7f7f7f" stroke-width="10" x1="68.5" x2="79.5" y1="21" y2="42"/>
<line fill="none" id="svg_12" stroke="#7f7f7f" stroke-width="12" x1="94.5" x2="77.5" y1="17" y2="43"/>
<line fill="none" id="svg_13" stroke="#7f7f7f" stroke-width="12" x1="286.5" x2="300.5" y1="19" y2="43"/>
<line fill="none" id="svg_14" stroke="#7f7f7f" stroke-width="10" x1="309.5" x2="302.5" y1="22" y2="41"/>
<circle cx="80" cy="46" fill="#0000bf" id="svg_15" r="8" stroke="#ffb200" stroke-width="8"/>
<circle cx="300" cy="46" fill="#0000bf" id="svg_16" r="8" stroke="#ffb200" stroke-width="8"/>
<rect fill="#000000" height="6" id="svg_17" stroke="#0000ff" stroke-width="0" width="42" x="280" y="21"/>
<rect fill="#000000" height="6" id="svg_18" stroke-width="0" width="42" x="58" y="21"/>
<path d="m2.5,5l67.5,14l28,-3l189,0l25,4l65,-15" fill-opacity="0" id="svg_19" stroke="#0000ff" stroke-width="10"/>
</g>
</symbol>
</defs>
<g class="layer">
<g id="svg_20" transform="rotate(33.1869 367 97.3714)">
<line fill="none" id="svg_30" stroke="#000000" x1="359.99753" x2="367.19753" y1="123.17144" y2="106.77144"/>
<line fill="none" id="svg_31" stroke="#000000" x1="374.79753" x2="367.19753" y1="121.97144" y2="107.17144"/>
<line fill="none" id="svg_32" stroke="#000000" x1="365.99753" x2="367.19753" y1="86.77144" y2="107.17144"/>
<line fill="none" id="svg_33" stroke="#000000" x1="357.19753" x2="376.79753" y1="92.77144" y2="91.97144"/>
<ellipse cx="365.99753" cy="79.37144" fill="none" id="svg_34" rx="8" ry="7.8" stroke="#000000"/>
<path d="m361.19753,79.97144c0,0 1.6,2.8 3.2,3.6c1.6,0.8 4,0.8 5.2,0c1.2,-0.8 1.6,-4 1.6,-4" fill="none" id="svg_35" stroke="#000000"/>
<ellipse cx="363.99753" cy="76.37144" fill="#000000" id="svg_36" rx="1.2" ry="1.2" stroke="#000000"/>
<ellipse cx="368.99753" cy="76.37145" fill="#000000" id="svg_37" rx="1.2" ry="1.2" stroke="#000000"/>
</g>
<g id="svg_26">
<line fill="none" id="svg_21" stroke="#000000" stroke-dasharray="null" stroke-linecap="null" stroke-linejoin="null" x1="363.75" x2="342.25" y1="67.5" y2="53"/>
<line fill="none" id="svg_22" stroke="#000000" stroke-dasharray="null" stroke-linecap="null" stroke-linejoin="null" x1="331.75" x2="311.75" y1="103.5" y2="88.5"/>
<line fill="none" id="svg_23" stroke="#000000" stroke-dasharray="null" stroke-linecap="null" stroke-linejoin="null" x1="344.75" x2="325.75" y1="82.5" y2="69.5"/>
<line fill="none" id="svg_24" stroke="#000000" stroke-dasharray="null" stroke-linecap="null" stroke-linejoin="null" x1="325.75" x2="343.75" y1="52" y2="64.5"/>
<line fill="none" id="svg_25" stroke="#000000" stroke-dasharray="null" stroke-linecap="null" stroke-linejoin="null" x1="309.25" x2="329.25" y1="73.5" y2="88.5"/>
</g>
</g>
</svg>