<svg width="400" height="400" xmlns="http://www.w3.org/2000/svg" xmlns:svg="http://www.w3.org/2000/svg" xmlns:xlink="http://www.w3.org/1999/xlink">
<g>
<rect fill="#77ddff" height="403.33333" id="svg_1" stroke="#000000" stroke-width="0" width="394.77777" x="-2.33334" y="-2.77777"/>
<rect fill="#7f7f7f" height="306.77777" id="svg_2" stroke="#000000" stroke-width="0" width="406" x="-4.99999" y="100.77777"/>
<ellipse cx="339" cy="100.77777" fill="#77ddff" id="svg_4" rx="250" ry="250" stroke="#000000" stroke-dasharray="null" stroke-linecap="null" stroke-linejoin="null" stroke-width="0"/>
<rect fill="#77ddff" height="36.77777" id="svg_6" stroke="#000000" stroke-dasharray="null" stroke-linecap="null" stroke-linejoin="null" stroke-width="0" width="80" x="340.33333" y="314"/>
<use id="svg_8" transform="matrix(0.241637 0 0 0.24171 71.3879 43.2411)" x="972.38025" xlink:href="#svg_7" y="1214.77724"/>
<g id="svg_9"/>
<use filter="url(#svg_10_blur)" id="svg_10" transform="rotate(36.5014 195.777 295.533) matrix(0.241637 0 0 0.24171 71.3879 43.2411)" x="324.57096" xlink:href="#svg_7" y="1014.2797"/>
<use filter="url(#svg_11_blur)" id="svg_11" transform="rotate(72.0307 109.333 175.777) matrix(0.241637 0 0 0.24171 71.3879 43.2411)" x="-32.71448" xlink:href="#svg_7" y="518.37085"/>
<use filter="url(#svg_12_blur)" id="svg_12" transform="matrix(0.241637 0 0 0.24171 71.3879 43.2411)" x="-278.26455" xlink:href="#svg_7" y="180.77451"/>
<line fill="none" id="svg_13" marker-start="url(#se_marker_start_svg_13)" stroke="#000000" stroke-dasharray="null" stroke-linecap="null" stroke-linejoin="null" x1="89.87767" x2="335.87767" y1="100.47777" y2="100.47767"/>
<polyline fill="none" id="svg_14" marker-start="url(#se_marker_start_svg_14)" points="336.3333435058594,348.7777738986969 336.3333435058594,224.33333694934845 336.3333435058594,100 " stroke="#000000" stroke-width="null"/>
<text fill="#000000" font-family="serif" font-size="15" id="svg_15" stroke="#000000" stroke-dasharray="null" stroke-linecap="null" stroke-linejoin="null" stroke-width="0" text-anchor="middle" x="213" xml:space="preserve" y="95">5 ft</text>
<text fill="#000000" font-family="serif" font-size="15" id="svg_16" stroke="#000000" stroke-dasharray="null" stroke-linecap="null" stroke-linejoin="null" stroke-width="0" text-anchor="middle" x="353.9947" xml:space="preserve" y="226">5 ft</text>
</g>
<defs>
<symbol height="58" id="svg_7" width="380" xmlns="http://www.w3.org/2000/svg" xmlns:svg="http://www.w3.org/2000/svg">
<g>
<line fill="none" stroke="#7f7f7f" stroke-width="10" x1="68.5" x2="79.5" y1="21" y2="42"/>
<line fill="none" stroke="#7f7f7f" stroke-width="12" x1="94.5" x2="77.5" y1="17" y2="43"/>
<line fill="none" stroke="#7f7f7f" stroke-width="12" x1="286.5" x2="300.5" y1="19" y2="43"/>
<line fill="none" stroke="#7f7f7f" stroke-width="10" x1="309.5" x2="302.5" y1="22" y2="41"/>
<circle cx="80" cy="46" fill="#0000bf" r="8" stroke="#ffb200" stroke-width="8"/>
<circle cx="300" cy="46" fill="#0000bf" r="8" stroke="#ffb200" stroke-width="8"/>
<rect fill="#000000" height="6" stroke="#0000ff" stroke-width="0" width="42" x="280" y="21"/>
<rect fill="#000000" height="6" stroke-width="0" width="42" x="58" y="21"/>
<path d="m2.5,5l67.5,14l28,-3l189,0l25,4l65,-15" fill-opacity="0" stroke="#0000ff" stroke-width="10"/>
</g>
</symbol>
<filter height="200%" id="svg_10_blur" width="200%" x="-50%" y="-50%">
<feGaussianBlur in="SourceGraphic" stdDeviation="3.5"/>
</filter>
<filter height="200%" id="svg_11_blur" width="200%" x="-50%" y="-50%">
<feGaussianBlur in="SourceGraphic" stdDeviation="7"/>
</filter>
<filter height="200%" id="svg_12_blur" width="200%" x="-50%" y="-50%">
<feGaussianBlur in="SourceGraphic" stdDeviation="10"/>
</filter>
<marker id="se_marker_start_svg_14" markerHeight="5" markerUnits="strokeWidth" markerWidth="5" orient="auto" refX="50" refY="50" se_type="leftarrow" viewBox="0 0 100 100">
<path d="m0,50l100,40l-30,-40l30,-40z" fill="#000000" stroke="#000000" stroke-width="10"/>
</marker>
<marker id="se_marker_start_svg_13" markerHeight="5" markerUnits="strokeWidth" markerWidth="5" orient="auto" refX="50" refY="50" se_type="leftarrow" viewBox="0 0 100 100">
<path d="m0,50l100,40l-30,-40l30,-40z" fill="#000000" stroke="#000000" stroke-width="10"/>
</marker>
</defs>
</svg>