<svg width="700" height="400" xmlns="http://www.w3.org/2000/svg" xmlns:svg="http://www.w3.org/2000/svg" xmlns:xlink="http://www.w3.org/1999/xlink">
<g class="layer">
<title>Layer 1</title>
<rect fill="#aad4ff" height="406.775" id="svg_18" stroke="#000000" stroke-dasharray="null" stroke-linecap="null" stroke-linejoin="null" stroke-width="0" width="701.99998" x="-1.777" y="-3.33331"/>
<path d="m1,138c19.33333,0.777 100.777,3.33333 106.777,3.33333c6,0 104.776,-1.33333 104.776,-1.33333c0,0 -1.33333,30.777 1.33334,52c2.776,21.33333 12,44.777 19.33333,55.33333c7.33333,10.777 28.777,34.777 52,52c23.33333,17.33333 48.777,33.33334 86,47.33334c37.33333,14 49.33333,16.776 87,20c37.777,3.33333 69,1.33333 68.777,0.776c-0.33334,-0.776 180.33333,-1.33333 180,-2c-0.33334,-0.776 0.33333,38 0,38c-0.33334,0 -709.777,0.777 -709.33334,0c0.33334,-0.776 -6.33333,-265.33333 -6,-265.33333c0.33334,0 9.777,0 9.777,0z" fill="#bfbfbf" id="svg_17" stroke="#000000" stroke-dasharray="null" stroke-linecap="null" stroke-linejoin="null" stroke-width="0"/>
<text fill="#ff0000" font-family="Cursive" font-size="24" id="svg_16" stroke="#000000" stroke-dasharray="null" stroke-linecap="null" stroke-linejoin="null" stroke-width="0" text-anchor="middle" x="311.776" xml:space="preserve" y="61.33333">Potential Energy</text>
<g id="svg_14"/>
<text fill="#00b700" font-family="Cursive" font-size="24" id="svg_19" stroke="#000000" stroke-dasharray="null" stroke-linecap="null" stroke-linejoin="null" stroke-width="0" text-anchor="middle" x="496.55142" xml:space="preserve" y="153.1767">Kinetic Energy</text>
<g id="svg_28">
<g id="svg_27">
<line fill="none" id="svg_2" stroke="#000000" stroke-dasharray="null" stroke-linecap="null" stroke-linejoin="null" stroke-width="5" x1="140.177" x2="152.177" y1="91" y2="127"/>
<line fill="none" id="svg_3" stroke="#000000" stroke-dasharray="null" stroke-linecap="null" stroke-linejoin="null" stroke-width="5" x1="139.177" x2="140.177" y1="53" y2="94"/>
<line fill="none" id="svg_4" stroke="#000000" stroke-dasharray="null" stroke-linecap="null" stroke-linejoin="null" stroke-width="5" x1="160.177" x2="137.177" y1="59" y2="51"/>
<line fill="none" id="svg_6" stroke="#000000" stroke-dasharray="null" stroke-linecap="null" stroke-linejoin="null" stroke-width="5" x1="136.177" x2="138.177" y1="39" y2="52"/>
<g id="svg_20">
<line fill="none" id="svg_5" stroke="#000000" stroke-dasharray="null" stroke-linecap="null" stroke-linejoin="null" stroke-width="5" x1="119.177" x2="139.177" y1="61" y2="50"/>
<ellipse cx="135.177" cy="24" fill="none" id="svg_7" rx="17" ry="17" stroke="#000000" stroke-dasharray="null" stroke-linecap="null" stroke-linejoin="null" stroke-width="5"/>
<path d="m126.177,23c-1,12 7,11 10,10c3,-1 3,-3 8.5,-8" fill="none" id="svg_9" stroke="#000000" stroke-dasharray="null" stroke-linecap="null" stroke-linejoin="null" stroke-width="5"/>
<ellipse cx="129.776" cy="15.33333" fill="black" id="svg_10" rx="1.33333" ry="1.33333" stroke="#000000" stroke-dasharray="null" stroke-linecap="null" stroke-linejoin="null" stroke-width="5"/>
<use id="svg_13" transform="matrix(0.278769 0 0 0.306393 35.229 34.1156)" x="171.26344" xlink:href="#svg_12" y="291.69085"/>
</g>
</g>
<ellipse cx="140.33333" cy="17.33333" fill="black" id="svg_11" rx="1.33333" ry="1.33" stroke="#000000" stroke-dasharray="null" stroke-linecap="null" stroke-linejoin="null" stroke-width="5"/>
<line fill="none" id="svg_1" stroke="#000000" stroke-width="5" x1="121.177" x2="140.177" y1="126.33333" y2="90.33333"/>
</g>
<g id="svg_29" transform="rotate(52.3009 295.333 212.77)">
<g id="svg_30">
<line fill="none" id="svg_31" stroke="#000000" stroke-dasharray="null" stroke-linecap="null" stroke-linejoin="null" stroke-width="5" x1="299.63165" x2="311.63165" y1="230.15024" y2="266.15024"/>
<line fill="none" id="svg_32" stroke="#000000" stroke-dasharray="null" stroke-linecap="null" stroke-linejoin="null" stroke-width="5" x1="298.63165" x2="299.63165" y1="192.15024" y2="233.15024"/>
<line fill="none" id="svg_33" stroke="#000000" stroke-dasharray="null" stroke-linecap="null" stroke-linejoin="null" stroke-width="5" x1="319.63165" x2="296.63165" y1="198.15024" y2="190.15024"/>
<line fill="none" id="svg_34" stroke="#000000" stroke-dasharray="null" stroke-linecap="null" stroke-linejoin="null" stroke-width="5" x1="295.63165" x2="297.63165" y1="178.15024" y2="191.15024"/>
<g id="svg_35">
<line fill="none" id="svg_36" stroke="#000000" stroke-dasharray="null" stroke-linecap="null" stroke-linejoin="null" stroke-width="5" x1="278.63165" x2="298.63165" y1="200.15024" y2="189.15024"/>
<ellipse cx="294.63165" cy="163.15024" fill="none" id="svg_37" rx="17" ry="17" stroke="#000000" stroke-dasharray="null" stroke-linecap="null" stroke-linejoin="null" stroke-width="5"/>
<path d="m285.63165,162.15024c-1,12 7,11 10,10c3,-1 3,-3 8.5,-8" fill="none" id="svg_38" stroke="#000000" stroke-dasharray="null" stroke-linecap="null" stroke-linejoin="null" stroke-width="5"/>
<ellipse cx="289.13165" cy="154.48357" fill="black" id="svg_39" rx="1.33333" ry="1.33333" stroke="#000000" stroke-dasharray="null" stroke-linecap="null" stroke-linejoin="null" stroke-width="5"/>
<use id="svg_40" transform="matrix(0.278769 0 0 0.306393 35.229 34.1156)" x="743.29617" xlink:href="#svg_12" y="745.84686"/>
</g>
</g>
<ellipse cx="299.79832" cy="156.48357" fill="black" id="svg_41" rx="1.33333" ry="1.33" stroke="#000000" stroke-dasharray="null" stroke-linecap="null" stroke-linejoin="null" stroke-width="5"/>
<line fill="none" id="svg_42" stroke="#000000" stroke-width="5" x1="280.63165" x2="299.63165" y1="265.48357" y2="229.48357"/>
</g>
<line fill="none" id="svg_43" stroke="#000000" stroke-dasharray="null" stroke-linecap="null" stroke-linejoin="null" x1="324.33333" x2="307.777" y1="152" y2="122"/>
<line fill="none" id="svg_44" stroke="#000000" stroke-dasharray="null" stroke-linecap="null" stroke-linejoin="null" x1="298.33333" x2="281" y1="163.33333" y2="128.777"/>
<line fill="none" id="svg_45" stroke="#000000" stroke-dasharray="null" stroke-linecap="null" stroke-linejoin="null" x1="279" x2="259.777" y1="190.777" y2="154"/>
<line fill="none" id="svg_46" stroke="#000000" stroke-dasharray="null" stroke-linecap="null" stroke-linejoin="null" x1="245.777" x2="230.33333" y1="193.33333" y2="153.33333"/>
<line fill="none" id="svg_47" stroke="#000000" stroke-dasharray="null" stroke-linecap="null" stroke-linejoin="null" x1="218.33333" x2="213.777" y1="182.777" y2="154.777"/>
<line fill="none" id="svg_48" stroke="#000000" stroke-dasharray="null" stroke-linecap="null" stroke-linejoin="null" stroke-width="2" x1="221" x2="181.777" y1="53.33333" y2="54"/>
<line fill="none" id="svg_49" stroke="#000000" stroke-dasharray="null" stroke-linecap="null" stroke-linejoin="null" stroke-width="2" x1="403.777" x2="357.777" y1="149.33333" y2="168.777"/>
<line fill="none" id="svg_50" stroke="#000000" stroke-dasharray="null" stroke-linecap="null" stroke-linejoin="null" stroke-width="2" x1="185" x2="181.777" y1="56.777" y2="53.33333"/>
<line fill="none" id="svg_51" stroke="#000000" stroke-dasharray="null" stroke-linecap="null" stroke-linejoin="null" stroke-width="2" x1="362.33333" x2="358.33333" y1="170" y2="168.777"/>
<line fill="none" id="svg_52" stroke="#000000" stroke-dasharray="null" stroke-linecap="null" stroke-linejoin="null" stroke-width="2" x1="183.777" x2="181.777" y1="50" y2="54"/>
<line fill="none" id="svg_53" stroke="#000000" stroke-dasharray="null" stroke-linecap="null" stroke-linejoin="null" stroke-width="2" x1="359" x2="359" y1="163.33333" y2="168.777"/>
<g id="svg_56"/>
</g>
<defs>
<symbol height="58" id="svg_12" width="380" xmlns="http://www.w3.org/2000/svg" xmlns:svg="http://www.w3.org/2000/svg">
<g>
<line fill="none" stroke="#7f7f7f" stroke-width="10" x1="68.5" x2="79.5" y1="21" y2="42"/>
<line fill="none" stroke="#7f7f7f" stroke-width="12" x1="94.5" x2="77.5" y1="17" y2="43"/>
<line fill="none" stroke="#7f7f7f" stroke-width="12" x1="286.5" x2="300.5" y1="19" y2="43"/>
<line fill="none" stroke="#7f7f7f" stroke-width="10" x1="309.5" x2="302.5" y1="22" y2="41"/>
<circle cx="80" cy="46" fill="#0000bf" r="8" stroke="#ffb200" stroke-width="8"/>
<circle cx="300" cy="46" fill="#0000bf" r="8" stroke="#ffb200" stroke-width="8"/>
<rect fill="#000000" height="6" stroke="#0000ff" stroke-width="0" width="42" x="280" y="21"/>
<rect fill="#000000" height="6" stroke-width="0" width="42" x="58" y="21"/>
<path d="m2.5,5l67.5,14l28,-3l189,0l25,4l65,-15" fill-opacity="0" stroke="#0000ff" stroke-width="10"/>
</g>
</symbol>
</defs>
</svg>